<?xml version="1.0" encoding="utf-8"?>
<!-- Generator: Adobe Illustrator 27.3.1, SVG Export Plug-In . SVG Version: 6.00 Build 0)  -->
<svg version="1.1" id="Layer_1" xmlns="http://www.w3.org/2000/svg" xmlns:xlink="http://www.w3.org/1999/xlink" x="0px" y="0px"
	 viewBox="0 0 1920 641.98" style="enable-background:new 0 0 1920 641.98;" xml:space="preserve">
<style type="text/css">
	.st0{fill:#1B345A;}
	.st1{fill:#B2B1B2;}
</style>
<g id="Group_6876" transform="translate(-143 -10)">
	<g id="Group_4432" transform="translate(143 115.816)">
		<path id="Path_1705" class="st0" d="M251.84,311.19c-4.22,1.62-8.76,3.25-8.76,12.98v102.85c0,73.32-61.64,90.84-102.19,90.84
			c-44.45,0-105.12-5.19-105.12-82.09V329.03c0-7.14-3.9-14.6-9.41-16.88l-17.19-6.81c-0.03-6.62,0.4-13.23,1.29-19.78h112.58
			c0.85,7.1,1.07,14.27,0.65,21.41l-21.74,3.9c-6.48,1.29-8.43,4.22-8.43,10.38v105.76c0,50.61,34.7,58.4,60.35,58.4
			c23.68,0,48.66-11.04,48.66-66.18v-87.6c0-7.79-3.24-17.84-18.17-22.06l-13.95-4.22c-0.37-6.59-0.26-13.21,0.33-19.78h96.03
			c1.06,6.76,1.49,13.6,1.3,20.43L251.84,311.19z"/>
		<path id="Path_1706" class="st0" d="M528.22,310.87c-7.99,4.68-13.02,13.14-13.3,22.39v178.44l-42.49,12.98L347.83,355.96h-2.27
			l1.3,25.96v44.45l0.97,48.98c0,7.79,0.65,10.39,7.79,12.33l27.58,7.79c0.08,6.53-0.46,13.05-1.62,19.48h-97.64
			c-1.06-6.32-1.49-12.73-1.3-19.14l15.58-4.21c10.06-2.6,15.25-18.5,15.58-28.88l0.65-36.33v-97.02
			c-0.05-6.78-3.61-13.04-9.41-16.55l-19.79-10.06c-0.26-5.74-0.04-11.49,0.66-17.19h75.23l121.01,159.62h2.27l-1.95-34.06v-77.55
			c-0.26-8.5-4.77-16.3-12-20.77l-20.44-10.06c-0.19-5.76,0.24-11.52,1.3-17.19h91.49c0.73,5.49,1.16,11.01,1.3,16.54L528.22,310.87
			z"/>
		<path id="Path_1707" class="st0" d="M669.64,514.94H561.29c-1.95-7.79-0.97-12.66-0.97-19.79L572,491.9
			c6.49-2.27,15.25-7.79,15.58-18.17l0.97-49.96v-94.42c0-10.7-10.38-16.22-16.55-18.81l-11.69-5.19c0-7.14-0.98-11.69,0.97-19.78
			h109.66c0.7,7.36,0.38,14.79-0.97,22.06l-14.27,3.57c-9.41,2.6-11.69,11.35-11.69,17.52v95.06l0.66,54.83
			c0.32,6.16,1.62,7.79,7.46,9.73l19.78,4.54C672.26,500.3,671.49,507.73,669.64,514.94z"/>
		<path id="Path_1708" class="st0" d="M938.59,522.73c-28.55,2.6-56.77,0-84.03-23.05c-19.12-15.89-36.01-45.1-49.63-75.91
			l-6.82,0.32h-25.63l0.97,51.26c0,6.49,1.3,9.73,6.82,11.36l20.11,6.82c0,2.91,0,17.84-1.3,21.41h-110.3
			c-0.79-6.67-1.12-13.4-0.98-20.12l15.58-3.57c7.46-1.63,12.33-11.36,12.66-20.12l0.97-44.77v-99.28
			c0.18-5.48-2.87-10.56-7.79-12.98l-21.08-8.44c-0.37-6.74,0.17-13.51,1.62-20.11h127.18c45.74,0,87.59,17.84,87.59,65.86
			c0,22.71-13.63,46.71-39.9,60.66c8.28,18.07,18.39,35.25,30.17,51.27c12.65,16.54,27.58,30.17,45.42,33.74L938.59,522.73z
			 M843.21,356.94c0-29.53-20.44-42.83-56.77-42.83h-14.28v83.38l23.68-0.32c34.39-0.32,47.04-12,47.04-40.23L843.21,356.94z"/>
		<path id="Path_1709" class="st0" d="M1176.05,514.94h-102.51c-2.4-6.76-3.39-13.94-2.92-21.09l17.19-6.16
			c6.42-1.53,10.88-7.35,10.7-13.95c-0.11-4.13-0.99-8.2-2.59-12.01l-11.03-33.74h-72.35l-11.69,30.83
			c-1.43,3.96-2.2,8.12-2.28,12.33c-0.58,7.57,4.57,14.38,12.01,15.89l23.37,6.82c0.3,7.09-0.35,14.18-1.95,21.09h-88.58
			c-1.41-6.39-1.96-12.94-1.62-19.48c7.46-7.14,11.35-10.39,15.58-19.79l79.8-184.61l50.94-10.7l75.59,195.95
			c3.63,7.33,8.58,13.93,14.6,19.48C1178.62,502.25,1177.85,508.72,1176.05,514.94z M1060.23,352.72l-7.79-27.9h-1.94l-9.09,26.91
			l-18.49,49.31h53.21L1060.23,352.72z"/>
		<path id="Path_1710" class="st0" d="M1442.07,310.87c-7.99,4.68-13.01,13.14-13.3,22.39v178.44l-42.49,12.98l-124.6-168.71h-2.27
			l1.3,25.96v44.45l0.98,48.98c0,7.79,0.64,10.39,7.79,12.33l27.57,7.79c0.08,6.53-0.46,13.05-1.62,19.48h-97.65
			c-1.06-6.32-1.49-12.73-1.3-19.14l15.58-4.21c10.06-2.6,15.25-18.5,15.58-28.88l0.64-36.33v-97.02
			c-0.05-6.77-3.61-13.04-9.41-16.55l-19.79-10.06c-0.26-5.74-0.04-11.49,0.66-17.19h75.27l121.02,159.62h2.27l-1.95-34.06v-77.55
			c-0.26-8.5-4.77-16.3-12-20.77l-20.45-10.06c-0.19-5.76,0.25-11.52,1.3-17.19h91.49c0.73,5.49,1.16,11.01,1.3,16.54
			L1442.07,310.87z"/>
		<path id="Path_1711" class="st0" d="M1709.7,518.83c-14.28,0-58.07-2.6-82.74-30.49l-69.1-78.2v13.63l0.65,54.83
			c0.32,6.16,1.3,8.42,7.46,9.73l19.79,4.54c0.34,7.42-0.43,14.86-2.27,22.06h-108.36c-0.97-6.55-1.3-13.18-0.98-19.79l11.69-3.25
			c6.49-2.27,15.25-7.79,15.58-18.17l0.97-49.96v-94.42c0-10.7-10.38-16.22-16.54-18.81l-11.69-5.19
			c-0.36-6.62,0.07-13.27,1.3-19.78h109.34c0.7,7.36,0.38,14.79-0.97,22.06l-14.28,3.57c-9.41,2.27-11.69,11.35-11.69,17.52v67.49
			l64.22-61.32c3.01-2.62,4.77-6.39,4.86-10.38c0.42-5.37-2.05-10.57-6.48-13.63l-9.08-4.87c-0.41-6.85,0.14-13.73,1.62-20.43h91.81
			v15.89l-99.92,86.95l47.04,48.02c19.79,20.44,40.23,40.54,63.26,56.45L1709.7,518.83z"/>
		<path id="Path_1712" class="st0" d="M1810.57,518.51c-26.28,0-61.32-5.52-84.03-19.48l6.16-58.72h23.37
			c2.59,31.79,29.2,48.66,59.37,48.66c12.66,0,37.97-4.87,37.97-21.74c0-12.97-19.14-21.41-42.18-31.8
			c-33.41-14.92-74.62-33.41-74.62-75.91c0-41.85,45.42-76.24,85.34-76.24c26.95-0.17,53.62,5.48,78.19,16.55v50.28h-21.09
			c-6.49-25.95-31.47-36.01-56.13-36.01c-17.52,0-34.7,5.52-34.7,25.95c0,13.96,24.33,23.04,51.26,34.7
			c33.75,14.6,71.38,32.77,71.38,69.76C1910.82,497.42,1855.66,518.51,1810.57,518.51z"/>
	</g>
	<g id="Group_4535" transform="translate(143 10)">
		<g id="Group_4529" transform="translate(0 0)">
			<path id="Path_1750" class="st0" d="M264.8,312.04l-97.65-72.24l-97.66,72.24l38.52-115.19L9.14,126.29l121.46,1.04l36.54-115.84
				l36.55,115.84l121.46-1.04l-98.87,70.55L264.8,312.04z"/>
		</g>
		<g id="Group_4530" transform="translate(111.938 0)">
			<path id="Path_1756" class="st1" d="M451.59,11.49l36.55,115.83l121.46-1.03l-98.87,70.54l38.52,115.2l-97.66-72.24l-97.65,72.24
				l38.52-115.2l-98.88-70.54l121.46,1.03L451.59,11.49z"/>
		</g>
		<g id="Group_4531" transform="translate(223.899 0)">
			<path id="Path_1750-2" class="st0" d="M833.74,312.04l-97.65-72.24l-97.66,72.24l38.52-115.19l-98.87-70.55l121.46,1.04
				l36.54-115.84l36.55,115.84l121.46-1.04l-98.87,70.55L833.74,312.04z"/>
		</g>
		<g id="Group_4532" transform="translate(335.837 0)">
			<path id="Path_1756-2" class="st1" d="M1020.53,11.49l36.55,115.83l121.46-1.03l-98.87,70.54l38.52,115.2l-97.66-72.24
				l-97.65,72.24l38.52-115.2l-98.88-70.54l121.46,1.03L1020.53,11.49z"/>
		</g>
		<g id="Group_4533" transform="translate(447.797 0)">
			<path id="Path_1750-3" class="st0" d="M1402.68,312.04l-97.65-72.24l-97.66,72.24l38.52-115.19l-98.87-70.55l121.46,1.04
				l36.54-115.84l36.55,115.84l121.46-1.04l-98.87,70.55L1402.68,312.04z"/>
		</g>
	</g>
</g>
</svg>
