<?xml version="1.0" encoding="utf-8"?>
<!-- Generator: Adobe Illustrator 27.3.1, SVG Export Plug-In . SVG Version: 6.00 Build 0)  -->
<svg version="1.1" id="Layer_1" xmlns="http://www.w3.org/2000/svg" xmlns:xlink="http://www.w3.org/1999/xlink" x="0px" y="0px"
	 viewBox="0 0 500 500" style="enable-background:new 0 0 500 500;" xml:space="preserve">
<style type="text/css">
	.st0{fill:none;stroke:#1B345A;stroke-width:2;stroke-linecap:round;stroke-linejoin:round;stroke-miterlimit:10;}
</style>
<rect x="151.29" y="419.98" class="st0" width="196" height="52.92"/>
<path class="st0" d="M494.3,361.18H4.3V31.18c0-1.77,1.44-3.21,3.21-3.21h483.58c1.77,0,3.21,1.44,3.21,3.21V361.18z"/>
<rect x="53.3" y="67.18" class="st0" width="392" height="254.8"/>
<path class="st0" d="M492.8,419.98H5.79c-0.82,0-1.49-0.67-1.49-1.49v-57.31h490v57.31C494.3,419.31,493.63,419.98,492.8,419.98z"/>
<line class="st0" x1="102.29" y1="472.9" x2="396.3" y2="472.9"/>
<g>
	<polyline class="st0" points="128.09,263.18 238.28,174.62 293.37,218.9 370.5,142.74 	"/>
	<polyline class="st0" points="318.52,140.31 370.5,140.31 370.5,194.58 	"/>
</g>
</svg>
