<?xml version="1.0" encoding="utf-8"?>
<!-- Generator: Adobe Illustrator 27.3.1, SVG Export Plug-In . SVG Version: 6.00 Build 0)  -->
<svg version="1.1" id="Layer_1" xmlns="http://www.w3.org/2000/svg" xmlns:xlink="http://www.w3.org/1999/xlink" x="0px" y="0px"
	 viewBox="0 0 801.7 110.23" style="enable-background:new 0 0 801.7 110.23;" xml:space="preserve">
<style type="text/css">
	.st0{fill:#1B345A;}
</style>
<g>
	<path class="st0" d="M105.64,17.04c-1.76,0.68-3.65,1.35-3.65,5.41v42.87c0,30.57-25.7,37.87-42.6,37.87
		c-18.53,0-43.82-2.16-43.82-34.22v-44.5c0-2.98-1.62-6.09-3.92-7.03l-7.17-2.84c0-1.22,0.14-6.76,0.54-8.25h46.93
		c0.41,2.03,0.41,7.17,0.27,8.93l-9.06,1.62c-2.7,0.54-3.52,1.76-3.52,4.33v44.09c0,21.1,14.47,24.34,25.16,24.34
		c9.87,0,20.29-4.6,20.29-27.59V25.56c0-3.25-1.35-7.44-7.57-9.2l-5.82-1.76c0-1.22-0.27-6.76,0.14-8.25h40.03
		c0.41,2.03,0.68,6.76,0.54,8.52L105.64,17.04z"/>
	<path class="st0" d="M220.86,16.91c-2.98,1.62-5.55,5.41-5.55,9.33v74.39l-17.72,5.41l-51.93-70.33h-0.95l0.54,10.82v18.53
		l0.41,20.42c0,3.25,0.27,4.33,3.25,5.14l11.5,3.25c0,1.22-0.13,6.63-0.68,8.11h-40.71c-0.41-2.03-0.68-6.22-0.54-7.98l6.49-1.76
		c4.19-1.08,6.36-7.71,6.49-12.04l0.27-15.15V24.62c0-2.98-1.76-5.68-3.92-6.9l-8.25-4.19c0-1.22-0.13-5.68,0.27-7.17h31.38
		l50.45,66.54h0.95l-0.81-14.2V26.37c0-3.38-2.3-7.3-5-8.66l-8.52-4.19c0-1.22,0-5.68,0.54-7.17h38.14c0.27,2.03,0.54,5.14,0.54,6.9
		L220.86,16.91z"/>
	<path class="st0" d="M279.82,101.98h-45.17c-0.81-3.25-0.41-5.28-0.41-8.25l4.87-1.35c2.7-0.95,6.36-3.25,6.49-7.57l0.41-20.83
		V24.62c0-4.46-4.33-6.76-6.9-7.84l-4.87-2.16c0-2.98-0.41-4.87,0.41-8.25h45.71c0.27,3.52,0.13,6.63-0.41,9.2L274,17.04
		c-3.92,1.08-4.87,4.73-4.87,7.3v39.63l0.27,22.86c0.13,2.57,0.68,3.24,3.11,4.06l8.25,1.89
		C280.77,96.03,280.77,98.46,279.82,101.98z"/>
	<path class="st0" d="M391.93,105.22c-11.9,1.08-23.67,0-35.03-9.6c-7.98-6.63-15.01-18.8-20.69-31.65l-2.84,0.14h-10.68l0.41,21.37
		c0,2.7,0.54,4.06,2.84,4.73l8.39,2.84c0,1.22,0,7.44-0.54,8.93h-45.98c-0.27-2.03-0.54-6.63-0.41-8.39l6.49-1.49
		c3.11-0.68,5.14-4.73,5.27-8.38l0.41-18.67V23.67c0-2.16-1.08-4.46-3.25-5.41l-8.79-3.52c-0.14-1.08,0-6.63,0.68-8.39h53.02
		c19.07,0,36.52,7.44,36.52,27.46c0,9.47-5.68,19.48-16.63,25.29c2.98,6.22,7.17,14.34,12.58,21.37c5.28,6.9,11.5,12.58,18.93,14.07
		L391.93,105.22z M352.17,36.11c0-12.31-8.52-17.85-23.67-17.85h-5.95v34.76l9.87-0.13c14.34-0.14,19.61-5,19.61-16.77H352.17z"/>
	<path class="st0" d="M490.92,101.98h-42.74c-1.08-2.84-1.22-5-1.22-8.79l7.17-2.57c3.11-1.08,4.46-3.11,4.46-5.82
		c0-1.76-0.41-3.11-1.08-5l-4.6-14.07h-30.16l-4.87,12.85c-0.68,2.03-0.95,3.65-0.95,5.14c0,4.6,2.84,5.95,5.01,6.63l9.74,2.84
		c0,2.57,0,6.09-0.81,8.79h-36.92c-0.68-2.3-0.68-5.14-0.68-8.11c3.11-2.98,4.73-4.33,6.49-8.25l33.27-76.96l21.23-4.46l31.51,81.69
		c1.35,3.24,3.79,5.68,6.09,8.11C491.87,97.24,491.74,99.27,490.92,101.98z M442.64,34.35l-3.25-11.63h-0.81l-3.79,11.23
		l-7.71,20.56h22.18L442.64,34.35z"/>
	<path class="st0" d="M601.82,16.91c-2.98,1.62-5.54,5.41-5.54,9.33v74.39l-17.72,5.41l-51.93-70.33h-0.95l0.54,10.82v18.53
		l0.41,20.42c0,3.25,0.27,4.33,3.25,5.14l11.5,3.25c0,1.22-0.14,6.63-0.68,8.11h-40.71c-0.41-2.03-0.68-6.22-0.54-7.98l6.49-1.76
		c4.19-1.08,6.36-7.71,6.49-12.04l0.27-15.15V24.62c0-2.98-1.76-5.68-3.92-6.9l-8.25-4.19c0-1.22-0.13-5.68,0.27-7.17h31.38
		l50.45,66.54h0.95l-0.81-14.2V26.37c0-3.38-2.3-7.3-5-8.66l-8.52-4.19c0-1.22,0-5.68,0.54-7.17h38.14c0.27,2.03,0.54,5.14,0.54,6.9
		L601.82,16.91z"/>
	<path class="st0" d="M713.39,103.6c-5.95,0-24.21-1.08-34.49-12.71l-28.81-32.6v5.68l0.27,22.86c0.14,2.57,0.54,3.51,3.11,4.06
		l8.25,1.89c0,3.24,0,5.68-0.95,9.2H615.6c-0.54-2.98-0.41-5.28-0.41-8.25l4.87-1.35c2.7-0.95,6.36-3.25,6.49-7.57l0.41-20.83V24.62
		c0-4.46-4.33-6.76-6.9-7.84l-4.87-2.16c0-2.98-0.13-5.14,0.54-8.25h45.58c0.27,3.52,0.14,6.63-0.41,9.2l-5.95,1.49
		c-3.92,0.95-4.87,4.73-4.87,7.3v28.13l26.78-25.56c1.35-1.22,2.03-2.84,2.03-4.33c0-2.57-1.08-4.87-2.7-5.68l-3.79-2.03
		c0-3.11-0.14-5.14,0.68-8.52h38.27v6.63L669.7,49.23l19.61,20.02c8.25,8.52,16.77,16.9,26.37,23.53L713.39,103.6z"/>
	<path class="st0" d="M755.44,103.46c-10.96,0-25.56-2.3-35.03-8.11l2.57-24.48h9.74c1.08,13.25,12.17,20.29,24.75,20.29
		c5.28,0,15.82-2.03,15.82-9.06c0-5.41-7.98-8.93-17.58-13.25c-13.93-6.22-31.11-13.93-31.11-31.65c0-17.45,18.93-31.78,35.57-31.78
		c11.23,0,23.4,2.43,32.59,6.9v20.96h-8.79c-2.71-10.82-13.12-15.01-23.4-15.01c-7.3,0-14.47,2.3-14.47,10.82
		c0,5.82,10.14,9.6,21.37,14.47c14.07,6.09,29.76,13.66,29.76,29.08C797.23,94.67,774.23,103.46,755.44,103.46z"/>
</g>
</svg>
