<?xml version="1.0" encoding="utf-8"?>
<!-- Generator: Adobe Illustrator 27.3.1, SVG Export Plug-In . SVG Version: 6.00 Build 0)  -->
<svg version="1.1" id="Layer_1" xmlns="http://www.w3.org/2000/svg" xmlns:xlink="http://www.w3.org/1999/xlink" x="0px" y="0px"
	 viewBox="0 0 6519.69 2964.4" style="enable-background:new 0 0 6519.69 2964.4;" xml:space="preserve">
<style type="text/css">
	.st0{fill:#1A325E;}
</style>
<g>
	<path class="st0" d="M3010.28,324.15c-52.31,20.13-108.66,40.25-108.66,160.98v1275.75c0,909.51-764.66,1126.86-1267.71,1126.86
		c-551.35,0-1303.92-64.4-1303.92-1018.2V545.49c0-88.54-48.29-181.09-116.71-209.27L0,251.71C0,215.49,4.02,50.49,16.09,6.22
		h1396.49c12.07,60.36,12.07,213.29,8.04,265.62l-269.64,48.29c-80.49,16.09-104.64,52.31-104.64,128.78v1311.97
		c0,627.8,430.62,724.4,748.55,724.4c293.78,0,603.67-136.84,603.67-820.99V577.69c0-96.58-40.25-221.35-225.36-273.67
		l-173.05-52.31c0-36.22-8.05-201.22,4.02-245.49h1191.24c12.07,60.36,20.13,201.22,16.09,253.55L3010.28,324.15z"/>
	<path class="st0" d="M6499.56,2948.09c-354.15,32.22-704.28,0-1042.35-285.73c-237.44-197.2-446.71-559.4-615.73-941.73
		l-84.49,4.03h-317.94l12.09,635.86c0,80.49,16.08,120.73,84.49,140.86l249.53,84.51c0,36.22,0,221.35-16.11,265.62H3400.73
		c-8.04-60.38-16.09-197.18-12.07-249.51l193.17-44.27c92.56-20.13,152.94-140.86,156.96-249.51l12.09-555.38V521.35
		c0-64.4-32.22-132.8-96.61-160.98l-261.57-104.64c-4.03-32.18,0-197.2,20.11-249.51h1577.6c567.44,0,1086.59,221.35,1086.59,816.97
		c0,281.71-169.02,579.51-495,752.57c88.54,185.13,213.29,426.58,374.27,635.86c156.93,205.25,342.06,374.27,563.42,418.56
		L6499.56,2948.09z M5316.36,891.6c0-366.24-253.51-531.24-704.28-531.24h-177.06v1034.29l293.77-4.03
		c426.62-4.02,583.55-148.91,583.55-499.02H5316.36z"/>
</g>
</svg>
