<?xml version="1.0" encoding="utf-8"?>
<!-- Generator: Adobe Illustrator 27.3.1, SVG Export Plug-In . SVG Version: 6.00 Build 0)  -->
<svg version="1.1" id="Layer_1" xmlns="http://www.w3.org/2000/svg" xmlns:xlink="http://www.w3.org/1999/xlink" x="0px" y="0px"
	 viewBox="0 0 100 100" style="enable-background:new 0 0 100 100;" xml:space="preserve">
<style type="text/css">
	.st0{fill:#A70000;}
</style>
<path class="st0" d="M33,4.4C34,2.3,36.2,1,38.5,1h23C63.8,1,66,2.3,67,4.4l1.4,2.7h18.4c3.4,0,6.1,2.7,6.1,6.1s-2.7,6.1-6.1,6.1
	H13.2c-3.4,0-6.1-2.7-6.1-6.1s2.7-6.1,6.1-6.1h18.4L33,4.4z M13.2,25.5h73.5v61.2c0,6.8-5.5,12.2-12.2,12.2h-49
	c-6.8,0-12.2-5.5-12.2-12.2V25.5z M31.6,37.8c-1.7,0-3.1,1.4-3.1,3.1v42.9c0,1.7,1.4,3.1,3.1,3.1s3.1-1.4,3.1-3.1V40.8
	C34.7,39.1,33.3,37.8,31.6,37.8z M50,37.8c-1.7,0-3.1,1.4-3.1,3.1v42.9c0,1.7,1.4,3.1,3.1,3.1s3.1-1.4,3.1-3.1V40.8
	C53.1,39.1,51.7,37.8,50,37.8z M68.4,37.8c-1.7,0-3.1,1.4-3.1,3.1v42.9c0,1.7,1.4,3.1,3.1,3.1s3.1-1.4,3.1-3.1V40.8
	C71.4,39.1,70.1,37.8,68.4,37.8z"/>
</svg>
