<?xml version="1.0" encoding="utf-8"?>
<!-- Generator: Adobe Illustrator 27.3.1, SVG Export Plug-In . SVG Version: 6.00 Build 0)  -->
<svg version="1.1" id="Layer_1" xmlns="http://www.w3.org/2000/svg" xmlns:xlink="http://www.w3.org/1999/xlink" x="0px" y="0px"
	 viewBox="0 0 14 16" style="enable-background:new 0 0 14 16;" xml:space="preserve">
<style type="text/css">
	.st0{fill:#1E3050;}
</style>
<g>
	<path class="st0" d="M13,3.6H1c-0.3,0-0.5-0.2-0.5-0.5V1.2c0-0.3,0.2-0.5,0.5-0.5H13c0.3,0,0.5,0.2,0.5,0.5v1.9
		C13.5,3.4,13.3,3.6,13,3.6z"/>
	<path class="st0" d="M13,7.5H1C0.7,7.5,0.5,7.3,0.5,7V5.1c0-0.3,0.2-0.5,0.5-0.5H13c0.3,0,0.5,0.2,0.5,0.5V7
		C13.5,7.3,13.3,7.5,13,7.5z"/>
	<path class="st0" d="M13,11.4H1c-0.3,0-0.5-0.2-0.5-0.5V9c0-0.3,0.2-0.5,0.5-0.5H13c0.3,0,0.5,0.2,0.5,0.5v1.9
		C13.5,11.2,13.3,11.4,13,11.4z"/>
	<path class="st0" d="M13,15.3H1c-0.3,0-0.5-0.2-0.5-0.5v-1.9c0-0.3,0.2-0.5,0.5-0.5H13c0.3,0,0.5,0.2,0.5,0.5v1.9
		C13.5,15.1,13.3,15.3,13,15.3z"/>
</g>
</svg>
