<?xml version="1.0" encoding="utf-8"?>
<!-- Generator: Adobe Illustrator 27.3.1, SVG Export Plug-In . SVG Version: 6.00 Build 0)  -->
<svg version="1.1" id="Layer_1" xmlns="http://www.w3.org/2000/svg" xmlns:xlink="http://www.w3.org/1999/xlink" x="0px" y="0px"
	 viewBox="0 0 100 100" style="enable-background:new 0 0 100 100;" xml:space="preserve">
<style type="text/css">
	.st0{fill:#1C345A;}
</style>
<path class="st0" d="M91.4,5c-4.2-4.2-10.9-4.2-15,0l-5.7,5.7l18.6,18.6l5.7-5.7c4.2-4.2,4.2-10.9,0-15L91.4,5z M34.6,46.8
	c-1.2,1.2-2.1,2.6-2.6,4.2l-5.6,16.9c-0.6,1.6-0.1,3.4,1.1,4.7c1.2,1.2,3,1.7,4.7,1.1L49.1,68c1.6-0.5,3-1.4,4.2-2.6L85,33.6
	L66.4,15L34.6,46.8z M20.1,13C10.1,13,1.9,21.2,1.9,31.3v48.6c0,10.1,8.2,18.2,18.2,18.2h48.6c10.1,0,18.2-8.2,18.2-18.2V61.7
	c0-3.4-2.7-6.1-6.1-6.1s-6.1,2.7-6.1,6.1v18.2c0,3.4-2.7,6.1-6.1,6.1H20.1c-3.4,0-6.1-2.7-6.1-6.1V31.3c0-3.4,2.7-6.1,6.1-6.1h18.2
	c3.4,0,6.1-2.7,6.1-6.1S41.7,13,38.3,13H20.1z"/>
</svg>
