<?xml version="1.0" encoding="utf-8"?>
<!-- Generator: Adobe Illustrator 27.3.1, SVG Export Plug-In . SVG Version: 6.00 Build 0)  -->
<svg version="1.1" id="Layer_1" xmlns="http://www.w3.org/2000/svg" xmlns:xlink="http://www.w3.org/1999/xlink" x="0px" y="0px"
	 viewBox="0 0 14 16" style="enable-background:new 0 0 14 16;" xml:space="preserve">
<style type="text/css">
	.st0{fill:#039BE5;}
</style>
<g>
	<g>
		<path class="st0" d="M3.2,5.2H1.5c-0.6,0-1-0.4-1-1V1.7c0-0.6,0.4-1,1-1h1.8c0.6,0,1,0.4,1,1v2.4C4.2,4.7,3.8,5.2,3.2,5.2z"/>
		<path class="st0" d="M7.9,5.2H6.1c-0.6,0-1-0.4-1-1V1.7c0-0.6,0.4-1,1-1h1.8c0.6,0,1,0.4,1,1v2.4C8.9,4.7,8.4,5.2,7.9,5.2z"/>
		<path class="st0" d="M12.5,5.2h-1.8c-0.6,0-1-0.4-1-1V1.7c0-0.6,0.4-1,1-1h1.8c0.6,0,1,0.4,1,1v2.4C13.5,4.7,13.1,5.2,12.5,5.2z"
			/>
	</g>
	<g>
		<path class="st0" d="M3.2,10.2H1.5c-0.6,0-1-0.4-1-1V6.8c0-0.6,0.4-1,1-1h1.8c0.6,0,1,0.4,1,1v2.4C4.2,9.8,3.8,10.2,3.2,10.2z"/>
		<path class="st0" d="M7.9,10.2H6.1c-0.6,0-1-0.4-1-1V6.8c0-0.6,0.4-1,1-1h1.8c0.6,0,1,0.4,1,1v2.4C8.9,9.8,8.4,10.2,7.9,10.2z"/>
		<path class="st0" d="M12.5,10.2h-1.8c-0.6,0-1-0.4-1-1V6.8c0-0.6,0.4-1,1-1h1.8c0.6,0,1,0.4,1,1v2.4C13.5,9.8,13.1,10.2,12.5,10.2
			z"/>
	</g>
	<g>
		<path class="st0" d="M3.2,15.3H1.5c-0.6,0-1-0.4-1-1v-2.4c0-0.6,0.4-1,1-1h1.8c0.6,0,1,0.4,1,1v2.4C4.2,14.8,3.8,15.3,3.2,15.3z"
			/>
		<path class="st0" d="M7.9,15.3H6.1c-0.6,0-1-0.4-1-1v-2.4c0-0.6,0.4-1,1-1h1.8c0.6,0,1,0.4,1,1v2.4C8.9,14.8,8.4,15.3,7.9,15.3z"
			/>
		<path class="st0" d="M12.5,15.3h-1.8c-0.6,0-1-0.4-1-1v-2.4c0-0.6,0.4-1,1-1h1.8c0.6,0,1,0.4,1,1v2.4
			C13.5,14.8,13.1,15.3,12.5,15.3z"/>
	</g>
</g>
</svg>
