<?xml version="1.0" encoding="utf-8"?>
<!-- Generator: Adobe Illustrator 27.3.1, SVG Export Plug-In . SVG Version: 6.00 Build 0)  -->
<svg version="1.1" id="Layer_1" xmlns="http://www.w3.org/2000/svg" xmlns:xlink="http://www.w3.org/1999/xlink" x="0px" y="0px"
	 viewBox="0 0 14 16" style="enable-background:new 0 0 14 16;" xml:space="preserve">
<style type="text/css">
	.st0{fill:#1E3050;}
</style>
<path class="st0" d="M11.7,3.3c-0.2-0.2-0.2-0.5,0-0.7c0.2-0.2,0.5-0.2,0.7,0L13.8,4c0.1,0.1,0.2,0.2,0.2,0.4s-0.1,0.3-0.2,0.4
	l-1.4,1.4c-0.2,0.2-0.5,0.2-0.7,0c-0.2-0.2-0.2-0.5,0-0.7l0.5-0.5l-3.8,0c-0.3,0-0.5-0.2-0.5-0.5s0.2-0.5,0.5-0.5h3.8L11.7,3.3z
	 M2.3,10.6l-0.5,0.5h3.8c0.3,0,0.5,0.2,0.5,0.5c0,0.3-0.2,0.5-0.5,0.5H1.8l0.5,0.5c0.2,0.2,0.2,0.5,0,0.7s-0.5,0.2-0.7,0L0.2,12
	c-0.1-0.1-0.2-0.2-0.2-0.4c0-0.1,0.1-0.3,0.2-0.4l1.4-1.4c0.2-0.2,0.5-0.2,0.7,0C2.5,10.1,2.6,10.4,2.3,10.6L2.3,10.6z M2.2,3.8h5.2
	C7.3,4,7.3,4.2,7.3,4.4c0,0.6,0.5,1.1,1.1,1.1h2.5c-0.1,0.4,0,0.8,0.3,1.1c0.4,0.4,1.2,0.4,1.6,0l0.4-0.4v4.6c0,0.8-0.6,1.4-1.4,1.4
	H6.6c0.1-0.2,0.1-0.3,0.1-0.5c0-0.6-0.5-1.1-1.1-1.1H3.1c0.1-0.4,0-0.8-0.3-1.1C2.3,9,1.6,9,1.2,9.5L0.8,9.9V5.2
	C0.8,4.5,1.4,3.8,2.2,3.8z M3.5,5.2H2.2v1.4C2.9,6.6,3.5,6,3.5,5.2z M11.8,9.4c-0.8,0-1.4,0.6-1.4,1.4h1.4V9.4z M7,10.1
	c1.1,0,2.1-0.9,2.1-2.1S8.1,5.9,7,5.9S4.9,6.9,4.9,8S5.9,10.1,7,10.1z"/>
</svg>
