<?xml version="1.0" encoding="utf-8"?>
<!-- Generator: Adobe Illustrator 27.3.1, SVG Export Plug-In . SVG Version: 6.00 Build 0)  -->
<svg version="1.1" id="Layer_1" xmlns="http://www.w3.org/2000/svg" xmlns:xlink="http://www.w3.org/1999/xlink" x="0px" y="0px"
	 viewBox="0 0 20 16" style="enable-background:new 0 0 20 16;" xml:space="preserve">
<style type="text/css">
	.st0{fill:#1E3050;}
</style>
<g id="Group_6325" transform="translate(971 741)">
	<path id="Path_12877" class="st0" d="M-961.77-736.56c-0.16,0.06-0.33,0.12-0.33,0.49v3.91c0,2.79-2.34,3.46-3.89,3.46
		c-1.69,0-4-0.2-4-3.12v-4.06c0.01-0.26-0.13-0.51-0.36-0.64l-0.65-0.26c0-0.13,0-0.25,0-0.38c0-0.13,0-0.25,0-0.38
		c1.44,0,2.89,0,4.33,0c0.03,0.27,0.04,0.54,0.02,0.82l-0.83,0.15c-0.19,0.01-0.33,0.16-0.33,0.35c0,0.02,0,0.03,0,0.05v4.02
		c0,1.93,1.32,2.22,2.3,2.22c0.9,0,1.85-0.42,1.85-2.52v-3.33c0.01-0.41-0.28-0.77-0.69-0.84l-0.53-0.16
		c-0.01-0.25-0.01-0.5,0.01-0.75h3.66c0.04,0.26,0.06,0.52,0.05,0.78L-961.77-736.56z"/>
	<path id="Path_12878" class="st0" d="M-951-728.48c-0.38,0.03-1.86,0.11-3.26-0.91c-1.44-1.05-1.81-2.53-1.89-2.89l-0.26,0.01
		h-0.98l0.04,1.95c0,0.25,0.05,0.37,0.26,0.43l0.76,0.26c0.01,0.27-0.01,0.54-0.05,0.82h-4.2c-0.03-0.25-0.04-0.51-0.04-0.77
		l0.59-0.14c0.3-0.13,0.5-0.44,0.48-0.77l0.04-1.7v-3.78c0.01-0.21-0.11-0.4-0.3-0.49l-0.8-0.32c-0.01-0.26,0.01-0.51,0.06-0.76
		h4.84c1.74,0,3.33,0.68,3.33,2.51c-0.04,0.99-0.62,1.88-1.52,2.31c0.32,0.69,0.7,1.34,1.15,1.95c0.4,0.62,1.02,1.08,1.73,1.28
		C-951-729.15-951-728.81-951-728.48z M-954.69-734.82c0-1.12-0.78-1.63-2.16-1.63h-0.54v3.17l0.9-0.01
		c1.31-0.01,1.79-0.46,1.79-1.53C-954.7-734.82-954.69-734.82-954.69-734.82z"/>
</g>
</svg>
